<?xml version="1.0" encoding="utf-8"?>
<!-- Generator: Adobe Illustrator 18.0.0, SVG Export Plug-In . SVG Version: 6.00 Build 0)  -->
<!DOCTYPE svg PUBLIC "-//W3C//DTD SVG 1.1//EN" "http://www.w3.org/Graphics/SVG/1.1/DTD/svg11.dtd">
<svg version="1.1" id="Layer_1" xmlns="http://www.w3.org/2000/svg" xmlns:xlink="http://www.w3.org/1999/xlink" x="0px" y="0px"
	 viewBox="0 0 239.1 223.5" enable-background="new 0 0 239.1 223.5" xml:space="preserve">
<g>
	<path fill="#FFFFFF" d="M231.1,71.3l-36.9,121.4c-3.4,11.4-15.1,20.2-26.7,20.2H43.8c-13.7,0-28.3-10.9-33.2-24.8
		c-2.1-6-2.1-11.9-0.3-17c0.3-2.7,0.8-5.4,0.9-8.6c0.1-2.1-1.1-3.9-0.8-5.5c0.5-3.2,3.3-5.5,5.5-9.1c4-6.7,8.6-17.6,10.1-24.5
		c0.7-2.5-0.7-5.5,0-7.8c0.7-2.5,3.2-4.4,4.6-6.8c3.6-6.2,8.3-18.1,9-24.4c0.3-2.8-1.1-5.9-0.3-8c0.9-3.1,3.9-4.4,5.9-7.1
		c3.2-4.4,8.6-17.2,9.4-24.3c0.3-2.3-1.1-4.6-0.7-7c0.5-2.5,3.8-5.2,5.9-8.3c5.6-8.3,6.7-26.7,23.7-21.8l-0.1,0.4
		c2.3-0.5,4.6-1.2,6.8-1.2h102c6.3,0,11.9,2.8,15.3,7.5c3.5,4.8,4.3,11.1,2.4,17.4l-36.7,121.4c-6.3,20.6-9.8,25.2-26.8,25.2H29.9
		c-1.7,0-3.9,0.4-5.1,2c-1.1,1.6-1.2,2.8-0.1,5.8c2.7,7.8,11.9,9.4,19.3,9.4h123.7c5,0,10.7-2.8,12.2-7.6l40.2-132.3
		c0.8-2.5,0.8-5.2,0.7-7.6c3.1,1.2,5.9,3.1,7.9,5.8C232,58.8,232.9,65.1,231.1,71.3z M77.9,92.9h81.5c2.3,0,4.8-1.9,5.6-4.3l2.8-8.6
		c0.8-2.4-0.5-4.3-2.9-4.3H83.4c-2.3,0-4.8,1.9-5.6,4.3l-2.8,8.6C74.1,91,75.5,92.9,77.9,92.9z M89,58.5h81.5c2.3,0,4.8-1.9,5.6-4.3
		l2.8-8.6c0.8-2.4-0.5-4.3-2.9-4.3H94.5c-2.3,0-4.8,1.9-5.6,4.3l-2.8,8.6C85.3,56.7,86.6,58.5,89,58.5z"/>
</g>
</svg>
